<svg width="1190" height="456" viewBox="0 0 1190 456" fill="none" xmlns="http://www.w3.org/2000/svg">
<mask id="path-1-inside-1_1_10" fill="white">
<path d="M-126 -59H260V53H-126V-59Z"/>
</mask>
<path d="M259 -59V53H261V-59H259Z" fill="#2B1B38" mask="url(#path-1-inside-1_1_10)"/>
<mask id="path-3-inside-2_1_10" fill="white">
<path d="M259 -59H325V53H259V-59Z"/>
</mask>
<path d="M324 -59V53H326V-59H324ZM260 53V-59H258V53H260Z" fill="#2B1B38" mask="url(#path-3-inside-2_1_10)"/>
<mask id="path-5-inside-3_1_10" fill="white">
<path d="M324 -59H864V103H324V-59Z"/>
</mask>
<path d="M863 -59V103H865V-59H863ZM325 103V-59H323V103H325Z" fill="#2B1B38" mask="url(#path-5-inside-3_1_10)"/>
<rect x="572.5" y="0.5" width="43" height="43" rx="11.5" fill="url(#paint0_linear_1_10)"/>
<rect x="572.5" y="0.5" width="43" height="43" rx="11.5" stroke="url(#paint1_linear_1_10)"/>
<g clip-path="url(#clip0_1_10)">
<mask id="mask0_1_10" style="mask-type:luminance" maskUnits="userSpaceOnUse" x="584" y="12" width="20" height="20">
<path d="M604 12H584V32H604V12Z" fill="white"/>
</mask>
<g mask="url(#mask0_1_10)">
<path fill-rule="evenodd" clip-rule="evenodd" d="M594 12H584L594 22H584L594 32H604L594 22H604L594 12Z" fill="url(#paint2_linear_1_10)"/>
</g>
</g>
<mask id="path-10-inside-4_1_10" fill="white">
<path d="M863 -59H929V53H863V-59Z"/>
</mask>
<path d="M928 -59V53H930V-59H928ZM864 53V-59H862V53H864Z" fill="#2B1B38" mask="url(#path-10-inside-4_1_10)"/>
<mask id="path-12-inside-5_1_10" fill="white">
<path d="M928 -59H1314V53H928V-59Z"/>
</mask>
<path d="M928 53H927V54H928V53ZM1314 52H928V54H1314V52ZM929 53V-59H927V53H929Z" fill="#2B1B38" mask="url(#path-12-inside-5_1_10)"/>
<mask id="path-14-inside-6_1_10" fill="white">
<path d="M-125.5 44H260.5V110H-125.5V44Z"/>
</mask>
<path d="M260.5 44H261.5V43H260.5V44ZM260.5 110V111H261.5V110H260.5ZM-125.5 45H260.5V43H-125.5V45ZM259.5 44V110H261.5V44H259.5ZM260.5 109H-125.5V111H260.5V109Z" fill="#2B1B38" mask="url(#path-14-inside-6_1_10)"/>
<rect x="260" y="44.5" width="65" height="65" stroke="#2B1B38"/>
<path d="M280.435 64.3164L305.184 89.0651L304.565 89.6838L279.816 64.9351L280.435 64.3164Z" fill="#2B1B38"/>
<path d="M279.816 89.0651L304.565 64.3164L305.184 64.9351L280.435 89.6838L279.816 89.0651Z" fill="#2B1B38"/>
<rect x="325" y="44.5" width="539" height="65" stroke="#2B1B38"/>
<rect x="466" y="76.5" width="88" height="1" rx="0.5" fill="url(#paint3_linear_1_10)"/>
<path d="M573.075 82L570.387 72.2H571.647L573.761 80.6L576.155 72.2H577.471L579.809 80.628L581.951 72.2H583.211L580.467 82H579.123L576.785 73.894L574.391 82H573.075ZM586.29 82.168C585.721 82.168 585.245 82.07 584.862 81.874C584.48 81.6687 584.195 81.4027 584.008 81.076C583.822 80.74 583.728 80.376 583.728 79.984C583.728 79.508 583.85 79.1067 584.092 78.78C584.344 78.444 584.694 78.192 585.142 78.024C585.6 77.8467 586.136 77.758 586.752 77.758H588.614C588.614 77.3193 588.544 76.9553 588.404 76.666C588.274 76.3673 588.078 76.1433 587.816 75.994C587.564 75.8447 587.247 75.77 586.864 75.77C586.416 75.77 586.029 75.882 585.702 76.106C585.376 76.33 585.175 76.6613 585.1 77.1H583.896C583.952 76.596 584.12 76.176 584.4 75.84C584.69 75.4947 585.054 75.2333 585.492 75.056C585.931 74.8693 586.388 74.776 586.864 74.776C587.518 74.776 588.059 74.8973 588.488 75.14C588.927 75.3733 589.254 75.7047 589.468 76.134C589.683 76.554 589.79 77.0533 589.79 77.632V82H588.74L588.67 80.754C588.577 80.95 588.456 81.1367 588.306 81.314C588.166 81.482 587.998 81.6313 587.802 81.762C587.616 81.8833 587.396 81.9813 587.144 82.056C586.892 82.1307 586.608 82.168 586.29 82.168ZM586.472 81.174C586.799 81.174 587.093 81.1087 587.354 80.978C587.625 80.838 587.854 80.6513 588.04 80.418C588.227 80.1753 588.367 79.9093 588.46 79.62C588.563 79.3307 588.614 79.0273 588.614 78.71V78.668H586.85C586.393 78.668 586.024 78.724 585.744 78.836C585.464 78.9387 585.264 79.088 585.142 79.284C585.021 79.4707 584.96 79.6853 584.96 79.928C584.96 80.18 585.016 80.3993 585.128 80.586C585.25 80.7727 585.422 80.9173 585.646 81.02C585.88 81.1227 586.155 81.174 586.472 81.174ZM591.861 82V74.944H593.037V82H591.861ZM592.449 73.446C592.216 73.446 592.02 73.3713 591.861 73.222C591.712 73.0633 591.637 72.8673 591.637 72.634C591.637 72.4007 591.712 72.214 591.861 72.074C592.02 71.9247 592.216 71.85 592.449 71.85C592.673 71.85 592.865 71.9247 593.023 72.074C593.182 72.214 593.261 72.4007 593.261 72.634C593.261 72.8673 593.182 73.0633 593.023 73.222C592.865 73.3713 592.673 73.446 592.449 73.446ZM598.025 82C597.605 82 597.241 81.9347 596.933 81.804C596.625 81.6733 596.387 81.454 596.219 81.146C596.06 80.8287 595.981 80.404 595.981 79.872V75.938H594.749V74.944H595.981L596.135 73.236H597.157V74.944H599.201V75.938H597.157V79.872C597.157 80.3107 597.245 80.6093 597.423 80.768C597.6 80.9173 597.913 80.992 598.361 80.992H599.117V82H598.025ZM600.875 82V71.92H602.051V82H600.875ZM604.244 82V74.944H605.42V82H604.244ZM604.832 73.446C604.599 73.446 604.403 73.3713 604.244 73.222C604.095 73.0633 604.02 72.8673 604.02 72.634C604.02 72.4007 604.095 72.214 604.244 72.074C604.403 71.9247 604.599 71.85 604.832 71.85C605.056 71.85 605.248 71.9247 605.406 72.074C605.565 72.214 605.644 72.4007 605.644 72.634C605.644 72.8673 605.565 73.0633 605.406 73.222C605.248 73.3713 605.056 73.446 604.832 73.446ZM610.296 82.168C609.717 82.168 609.208 82.07 608.77 81.874C608.331 81.678 607.981 81.4073 607.72 81.062C607.468 80.7073 607.314 80.292 607.258 79.816H608.462C608.508 80.0587 608.606 80.2827 608.756 80.488C608.905 80.6933 609.106 80.8613 609.358 80.992C609.619 81.1133 609.936 81.174 610.31 81.174C610.636 81.174 610.907 81.1273 611.122 81.034C611.336 80.9313 611.495 80.796 611.598 80.628C611.71 80.46 611.766 80.278 611.766 80.082C611.766 79.7927 611.696 79.5733 611.556 79.424C611.425 79.2747 611.229 79.158 610.968 79.074C610.706 78.9807 610.389 78.9013 610.016 78.836C609.708 78.78 609.404 78.7053 609.106 78.612C608.807 78.5187 608.541 78.3973 608.308 78.248C608.074 78.0893 607.888 77.898 607.748 77.674C607.617 77.45 607.552 77.1747 607.552 76.848C607.552 76.4467 607.654 76.092 607.86 75.784C608.074 75.4667 608.373 75.2193 608.756 75.042C609.138 74.8647 609.586 74.776 610.1 74.776C610.856 74.776 611.467 74.958 611.934 75.322C612.4 75.686 612.676 76.2133 612.76 76.904H611.598C611.551 76.5493 611.397 76.274 611.136 76.078C610.884 75.8727 610.534 75.77 610.086 75.77C609.647 75.77 609.311 75.8587 609.078 76.036C608.854 76.2133 608.742 76.4467 608.742 76.736C608.742 76.9227 608.802 77.0907 608.924 77.24C609.054 77.38 609.246 77.5013 609.498 77.604C609.75 77.7067 610.053 77.7907 610.408 77.856C610.874 77.94 611.299 78.052 611.682 78.192C612.064 78.332 612.372 78.542 612.606 78.822C612.848 79.0927 612.97 79.48 612.97 79.984C612.97 80.4227 612.858 80.8053 612.634 81.132C612.419 81.4587 612.111 81.7153 611.71 81.902C611.308 82.0793 610.837 82.168 610.296 82.168ZM617.261 82C616.841 82 616.477 81.9347 616.169 81.804C615.861 81.6733 615.623 81.454 615.455 81.146C615.296 80.8287 615.217 80.404 615.217 79.872V75.938H613.985V74.944H615.217L615.371 73.236H616.393V74.944H618.437V75.938H616.393V79.872C616.393 80.3107 616.481 80.6093 616.659 80.768C616.836 80.9173 617.149 80.992 617.597 80.992H618.353V82H617.261Z" fill="#D387FF"/>
<rect x="635" y="76.5" width="88" height="1" rx="0.5" fill="url(#paint4_linear_1_10)"/>
<rect x="864" y="44.5" width="65" height="65" stroke="#2B1B38"/>
<path d="M884.435 64.3164L909.184 89.0651L908.565 89.6838L883.816 64.9351L884.435 64.3164Z" fill="#2B1B38"/>
<path d="M883.816 89.0651L908.565 64.3164L909.184 64.9351L884.435 89.6838L883.816 89.0651Z" fill="#2B1B38"/>
<mask id="path-24-inside-7_1_10" fill="white">
<path d="M928.5 44H1314.5V110H928.5V44Z"/>
</mask>
<path d="M928.5 44V43H927.5V44H928.5ZM928.5 110H927.5V111H928.5V110ZM928.5 45H1314.5V43H928.5V45ZM1314.5 109H928.5V111H1314.5V109ZM929.5 110V44H927.5V110H929.5Z" fill="#2B1B38" mask="url(#path-24-inside-7_1_10)"/>
<mask id="path-26-inside-8_1_10" fill="white">
<path d="M-125.5 109H260.5V375H-125.5V109Z"/>
</mask>
<path d="M260.5 109H261.5V108H260.5V109ZM260.5 375V376H261.5V375H260.5ZM-125.5 110H260.5V108H-125.5V110ZM259.5 109V375H261.5V109H259.5ZM260.5 374H-125.5V376H260.5V374Z" fill="#2B1B38" mask="url(#path-26-inside-8_1_10)"/>
<rect x="260" y="109.5" width="65" height="265" stroke="#2B1B38"/>
<rect x="325" y="109.5" width="539" height="265" stroke="#2B1B38"/>
<rect x="323.5" y="373" width="3" height="3" rx="1.5" fill="#D387FF"/>
<path d="M323.455 232.536C296.191 232.536 278.527 213.592 278.527 184.28C278.527 155.224 296.831 135.896 324.223 135.896C346.367 135.896 362.879 148.824 366.079 168.92H348.799C345.599 158.04 336.255 151.64 323.839 151.64C306.559 151.64 295.679 164.184 295.679 184.152C295.679 203.992 306.687 216.792 323.839 216.792C336.511 216.792 346.239 210.136 349.311 199.768H366.335C362.751 219.48 345.599 232.536 323.455 232.536ZM413.284 167.512V181.976H407.524C396.26 181.976 389.22 187.992 389.22 200.28V231H373.604V167.896H388.324L389.22 177.112C391.908 170.84 397.924 166.616 406.372 166.616C408.548 166.616 410.724 166.872 413.284 167.512ZM444.897 232.664C426.081 232.664 412.897 218.968 412.897 199.384C412.897 179.544 425.825 165.848 444.385 165.848C463.329 165.848 475.361 178.52 475.361 198.232V202.968L427.745 203.096C428.897 214.232 434.785 219.864 445.153 219.864C453.729 219.864 459.361 216.536 461.153 210.52H475.617C472.929 224.344 461.409 232.664 444.897 232.664ZM444.513 178.648C435.297 178.648 429.665 183.64 428.129 193.112H459.873C459.873 184.408 453.857 178.648 444.513 178.648ZM500.93 232.664C487.49 232.664 479.298 224.856 479.298 212.952C479.298 201.304 487.746 194.008 502.722 192.856L521.666 191.448V190.04C521.666 181.464 516.546 178.008 508.61 178.008C499.394 178.008 494.274 181.848 494.274 188.504H480.962C480.962 174.808 492.226 165.848 509.378 165.848C526.402 165.848 536.898 175.064 536.898 192.6V231H523.202L522.05 221.656C519.362 228.184 510.786 232.664 500.93 232.664ZM506.05 220.888C515.65 220.888 521.794 215.128 521.794 205.4V202.072L508.61 203.096C498.882 203.992 495.17 207.192 495.17 212.312C495.17 218.072 499.01 220.888 506.05 220.888ZM567.748 231H552.132V180.824H539.972V167.768H552.132V148.056H567.748V167.768H580.036V180.824H567.748V231ZM612.287 232.664C593.471 232.664 580.287 218.968 580.287 199.384C580.287 179.544 593.215 165.848 611.775 165.848C630.719 165.848 642.751 178.52 642.751 198.232V202.968L595.135 203.096C596.287 214.232 602.175 219.864 612.543 219.864C621.119 219.864 626.751 216.536 628.543 210.52H643.007C640.319 224.344 628.799 232.664 612.287 232.664ZM611.903 178.648C602.687 178.648 597.055 183.64 595.519 193.112H627.263C627.263 184.408 621.247 178.648 611.903 178.648ZM674.005 260.312V247.256H683.349C689.493 247.256 693.333 245.848 696.021 238.424L697.813 233.688L672.341 167.768H688.853L705.109 213.848L722.261 167.768H738.389L707.413 245.08C702.677 256.856 696.021 261.72 685.653 261.72C681.301 261.72 677.461 261.208 674.005 260.312ZM735.552 199.256C735.552 179.544 749.76 165.976 769.344 165.976C788.928 165.976 803.136 179.544 803.136 199.256C803.136 218.968 788.928 232.536 769.344 232.536C749.76 232.536 735.552 218.968 735.552 199.256ZM751.168 199.256C751.168 210.776 758.592 218.584 769.344 218.584C780.096 218.584 787.52 210.776 787.52 199.256C787.52 187.736 780.096 179.928 769.344 179.928C758.592 179.928 751.168 187.736 751.168 199.256ZM851.774 167.768H867.39V231H852.926L851.774 222.552C847.934 228.568 839.742 232.664 831.294 232.664C816.702 232.664 808.126 222.808 808.126 207.32V167.768H823.742V201.816C823.742 213.848 828.478 218.712 837.182 218.712C847.038 218.712 851.774 212.952 851.774 200.92V167.768ZM918.079 167.512V181.976H912.319C901.055 181.976 894.015 187.992 894.015 200.28V231H878.399V167.896H893.119L894.015 177.112C896.703 170.84 902.719 166.616 911.167 166.616C913.343 166.616 915.519 166.872 918.079 167.512ZM319.357 280.768H334.973V344H320.509L319.357 335.552C315.517 341.568 307.325 345.664 298.877 345.664C284.285 345.664 275.709 335.808 275.709 320.32V280.768H291.325V314.816C291.325 326.848 296.061 331.712 304.765 331.712C314.621 331.712 319.357 325.952 319.357 313.92V280.768ZM361.598 344H345.982V280.768H360.446L361.726 288.96C365.694 282.56 373.374 278.848 381.95 278.848C397.822 278.848 406.014 288.704 406.014 305.088V344H390.398V308.8C390.398 298.176 385.15 293.056 377.086 293.056C367.486 293.056 361.598 299.712 361.598 309.952V344ZM424.045 268.096C418.669 268.096 414.445 263.872 414.445 258.624C414.445 253.376 418.669 249.28 424.045 249.28C429.165 249.28 433.389 253.376 433.389 258.624C433.389 263.872 429.165 268.096 424.045 268.096ZM416.237 344V280.768H431.853V344H416.237ZM439.155 311.616C439.155 291.776 450.931 278.848 468.723 278.848C478.323 278.848 486.643 283.072 490.483 290.368L491.507 280.768H505.843V373.312H490.355V335.552C486.387 341.952 478.067 345.664 468.723 345.664C449.907 345.664 439.155 331.328 439.155 311.616ZM454.771 312.384C454.771 323.648 461.427 331.584 472.307 331.584C483.187 331.584 490.227 323.776 490.227 312.384C490.227 300.992 483.187 293.056 472.307 293.056C461.427 293.056 454.771 301.12 454.771 312.384ZM559.876 280.768H575.493V344H561.028L559.876 335.552C556.036 341.568 547.844 345.664 539.396 345.664C524.804 345.664 516.228 335.808 516.228 320.32V280.768H531.844V314.816C531.844 326.848 536.58 331.712 545.284 331.712C555.14 331.712 559.876 325.952 559.876 313.92V280.768ZM613.54 345.664C594.724 345.664 581.54 331.968 581.54 312.384C581.54 292.544 594.468 278.848 613.028 278.848C631.972 278.848 644.004 291.52 644.004 311.232V315.968L596.388 316.096C597.54 327.232 603.428 332.864 613.796 332.864C622.372 332.864 628.004 329.536 629.796 323.52H644.26C641.572 337.344 630.052 345.664 613.54 345.664ZM613.156 291.648C603.94 291.648 598.308 296.64 596.772 306.112H628.516C628.516 297.408 622.5 291.648 613.156 291.648ZM696.506 344H681.018V248.768H696.506V344ZM704.055 312.256C704.055 292.544 718.263 278.976 737.847 278.976C757.431 278.976 771.639 292.544 771.639 312.256C771.639 331.968 757.431 345.536 737.847 345.536C718.263 345.536 704.055 331.968 704.055 312.256ZM719.671 312.256C719.671 323.776 727.095 331.584 737.847 331.584C748.599 331.584 756.023 323.776 756.023 312.256C756.023 300.736 748.599 292.928 737.847 292.928C727.095 292.928 719.671 300.736 719.671 312.256ZM775.313 310.976C775.313 292.544 787.345 278.72 805.393 278.72C814.865 278.72 822.289 282.688 826.001 289.472L826.897 280.768H841.361V340.8C841.361 361.92 828.689 375.104 808.209 375.104C790.033 375.104 777.617 364.736 775.697 347.84H791.313C792.337 356.032 798.609 360.896 808.209 360.896C818.961 360.896 825.873 354.112 825.873 343.616V333.12C821.905 339.008 814.097 342.72 805.009 342.72C787.089 342.72 775.313 329.28 775.313 310.976ZM791.057 310.592C791.057 321.216 797.841 329.152 808.081 329.152C818.833 329.152 825.489 321.6 825.489 310.592C825.489 299.84 818.961 292.416 808.081 292.416C797.713 292.416 791.057 300.224 791.057 310.592ZM848.69 312.256C848.69 292.544 862.898 278.976 882.482 278.976C902.066 278.976 916.274 292.544 916.274 312.256C916.274 331.968 902.066 345.536 882.482 345.536C862.898 345.536 848.69 331.968 848.69 312.256ZM864.306 312.256C864.306 323.776 871.73 331.584 882.482 331.584C893.234 331.584 900.658 323.776 900.658 312.256C900.658 300.736 893.234 292.928 882.482 292.928C871.73 292.928 864.306 300.736 864.306 312.256Z" fill="white"/>
<rect x="862.5" y="373" width="3" height="3" rx="1.5" fill="#D387FF"/>
<rect x="323.5" y="108" width="3" height="3" rx="1.5" fill="#D387FF"/>
<rect x="862.5" y="108" width="3" height="3" rx="1.5" fill="#D387FF"/>
<rect x="864" y="109.5" width="65" height="265" stroke="#2B1B38"/>
<mask id="path-36-inside-9_1_10" fill="white">
<path d="M928.5 109H1314.5V375H928.5V109Z"/>
</mask>
<path d="M928.5 109V108H927.5V109H928.5ZM928.5 375H927.5V376H928.5V375ZM928.5 110H1314.5V108H928.5V110ZM1314.5 374H928.5V376H1314.5V374ZM929.5 375V109H927.5V375H929.5Z" fill="#2B1B38" mask="url(#path-36-inside-9_1_10)"/>
<mask id="path-38-inside-10_1_10" fill="white">
<path d="M-125.5 377H260.5V455H-125.5V377Z"/>
</mask>
<path d="M260.5 377H261.5V376H260.5V377ZM260.5 455V456H261.5V455H260.5ZM-125.5 378H260.5V376H-125.5V378ZM259.5 377V455H261.5V377H259.5ZM260.5 454H-125.5V456H260.5V454Z" fill="#2B1B38" mask="url(#path-38-inside-10_1_10)"/>
<rect x="260" y="377.5" width="65" height="77" stroke="#2B1B38"/>
<rect x="325" y="377.5" width="539" height="77" stroke="#2B1B38"/>
<path d="M422.675 411V398.4H430.343V399.642H424.187V404.07H429.425V405.294H424.187V411H422.675ZM434.213 411.216C433.469 411.216 432.851 411.09 432.359 410.838C431.879 410.586 431.519 410.25 431.279 409.83C431.039 409.398 430.919 408.93 430.919 408.426C430.919 407.814 431.075 407.298 431.387 406.878C431.711 406.458 432.161 406.14 432.737 405.924C433.325 405.696 434.009 405.582 434.789 405.582H437.201C437.201 405.018 437.111 404.55 436.931 404.178C436.763 403.806 436.511 403.524 436.175 403.332C435.839 403.14 435.431 403.044 434.951 403.044C434.375 403.044 433.871 403.194 433.439 403.494C433.019 403.782 432.761 404.202 432.665 404.754H431.117C431.189 404.118 431.405 403.578 431.765 403.134C432.137 402.69 432.605 402.354 433.169 402.126C433.733 401.886 434.327 401.766 434.951 401.766C435.779 401.766 436.469 401.922 437.021 402.234C437.585 402.534 438.005 402.96 438.281 403.512C438.569 404.052 438.713 404.694 438.713 405.438V411H437.363L437.273 409.398C437.153 409.65 436.997 409.89 436.805 410.118C436.625 410.334 436.409 410.526 436.157 410.694C435.917 410.85 435.635 410.976 435.311 411.072C434.987 411.168 434.621 411.216 434.213 411.216ZM434.447 409.938C434.879 409.938 435.263 409.854 435.599 409.686C435.935 409.506 436.223 409.266 436.463 408.966C436.715 408.666 436.901 408.33 437.021 407.958C437.141 407.574 437.201 407.184 437.201 406.788V406.752H434.915C434.339 406.752 433.871 406.824 433.511 406.968C433.151 407.1 432.893 407.286 432.737 407.526C432.581 407.766 432.503 408.042 432.503 408.354C432.503 408.678 432.575 408.96 432.719 409.2C432.875 409.44 433.097 409.626 433.385 409.758C433.673 409.878 434.027 409.938 434.447 409.938ZM444.076 411.216C443.344 411.216 442.696 411.096 442.132 410.856C441.58 410.604 441.136 410.25 440.8 409.794C440.464 409.338 440.254 408.804 440.17 408.192H441.718C441.79 408.516 441.922 408.81 442.114 409.074C442.306 409.338 442.57 409.548 442.906 409.704C443.242 409.86 443.638 409.938 444.094 409.938C444.526 409.938 444.874 409.878 445.138 409.758C445.414 409.626 445.618 409.458 445.75 409.254C445.894 409.038 445.966 408.804 445.966 408.552C445.966 408.18 445.876 407.898 445.696 407.706C445.528 407.514 445.276 407.364 444.94 407.256C444.604 407.148 444.202 407.052 443.734 406.968C443.35 406.896 442.966 406.8 442.582 406.68C442.21 406.548 441.868 406.392 441.556 406.212C441.256 406.02 441.016 405.78 440.836 405.492C440.656 405.204 440.566 404.85 440.566 404.43C440.566 403.914 440.698 403.458 440.962 403.062C441.238 402.654 441.616 402.336 442.096 402.108C442.588 401.88 443.17 401.766 443.842 401.766C444.802 401.766 445.582 402 446.182 402.468C446.782 402.936 447.136 403.614 447.244 404.502H445.75C445.69 404.046 445.492 403.692 445.156 403.44C444.832 403.176 444.388 403.044 443.824 403.044C443.26 403.044 442.828 403.158 442.528 403.386C442.24 403.614 442.096 403.914 442.096 404.286C442.096 404.526 442.18 404.736 442.348 404.916C442.516 405.096 442.756 405.252 443.068 405.384C443.392 405.504 443.782 405.612 444.238 405.708C444.826 405.816 445.366 405.96 445.858 406.14C446.35 406.32 446.746 406.584 447.046 406.932C447.358 407.28 447.514 407.778 447.514 408.426C447.526 408.978 447.388 409.464 447.1 409.884C446.812 410.304 446.41 410.634 445.894 410.874C445.39 411.102 444.784 411.216 444.076 411.216ZM452.473 411C451.933 411 451.465 410.916 451.069 410.748C450.673 410.58 450.367 410.298 450.151 409.902C449.947 409.494 449.845 408.948 449.845 408.264V403.26H448.279V401.982H449.845L450.043 399.822H451.357V401.982H453.985V403.26H451.357V408.264C451.357 408.828 451.471 409.212 451.699 409.416C451.927 409.608 452.329 409.704 452.905 409.704H453.859V411H452.473ZM455.307 413.214L456.351 409.236H457.917L456.351 413.214H455.307ZM467.21 411.216C466.478 411.216 465.83 411.096 465.266 410.856C464.714 410.604 464.27 410.25 463.934 409.794C463.598 409.338 463.388 408.804 463.304 408.192H464.852C464.924 408.516 465.056 408.81 465.248 409.074C465.44 409.338 465.704 409.548 466.04 409.704C466.376 409.86 466.772 409.938 467.228 409.938C467.66 409.938 468.008 409.878 468.272 409.758C468.548 409.626 468.752 409.458 468.884 409.254C469.028 409.038 469.1 408.804 469.1 408.552C469.1 408.18 469.01 407.898 468.83 407.706C468.662 407.514 468.41 407.364 468.074 407.256C467.738 407.148 467.336 407.052 466.868 406.968C466.484 406.896 466.1 406.8 465.716 406.68C465.344 406.548 465.002 406.392 464.69 406.212C464.39 406.02 464.15 405.78 463.97 405.492C463.79 405.204 463.7 404.85 463.7 404.43C463.7 403.914 463.832 403.458 464.096 403.062C464.372 402.654 464.75 402.336 465.23 402.108C465.722 401.88 466.304 401.766 466.976 401.766C467.936 401.766 468.716 402 469.316 402.468C469.916 402.936 470.27 403.614 470.378 404.502H468.884C468.824 404.046 468.626 403.692 468.29 403.44C467.966 403.176 467.522 403.044 466.958 403.044C466.394 403.044 465.962 403.158 465.662 403.386C465.374 403.614 465.23 403.914 465.23 404.286C465.23 404.526 465.314 404.736 465.482 404.916C465.65 405.096 465.89 405.252 466.202 405.384C466.526 405.504 466.916 405.612 467.372 405.708C467.96 405.816 468.5 405.96 468.992 406.14C469.484 406.32 469.88 406.584 470.18 406.932C470.492 407.28 470.648 407.778 470.648 408.426C470.66 408.978 470.522 409.464 470.234 409.884C469.946 410.304 469.544 410.634 469.028 410.874C468.524 411.102 467.918 411.216 467.21 411.216ZM472.61 411V401.982H474.122V411H472.61ZM473.366 400.038C473.066 400.038 472.814 399.942 472.61 399.75C472.418 399.546 472.322 399.294 472.322 398.994C472.322 398.694 472.418 398.454 472.61 398.274C472.814 398.082 473.066 397.986 473.366 397.986C473.654 397.986 473.9 398.082 474.104 398.274C474.308 398.454 474.41 398.694 474.41 398.994C474.41 399.294 474.308 399.546 474.104 399.75C473.9 399.942 473.654 400.038 473.366 400.038ZM476.395 411V401.982H477.763L477.871 403.278C478.159 402.81 478.543 402.444 479.023 402.18C479.503 401.904 480.043 401.766 480.643 401.766C481.099 401.766 481.519 401.832 481.903 401.964C482.287 402.084 482.623 402.276 482.911 402.54C483.199 402.792 483.433 403.116 483.613 403.512C483.925 402.96 484.357 402.534 484.909 402.234C485.461 401.922 486.043 401.766 486.655 401.766C487.363 401.766 487.981 401.91 488.509 402.198C489.037 402.474 489.439 402.9 489.715 403.476C490.003 404.052 490.147 404.778 490.147 405.654V411H488.653V405.816C488.653 404.904 488.467 404.22 488.095 403.764C487.723 403.296 487.195 403.062 486.511 403.062C486.031 403.062 485.605 403.188 485.233 403.44C484.861 403.692 484.567 404.052 484.351 404.52C484.135 404.988 484.027 405.564 484.027 406.248V411H482.515V405.816C482.515 404.904 482.329 404.22 481.957 403.764C481.585 403.296 481.057 403.062 480.373 403.062C479.917 403.062 479.497 403.188 479.113 403.44C478.741 403.692 478.447 404.052 478.231 404.52C478.015 404.988 477.907 405.564 477.907 406.248V411H476.395ZM492.101 414.96V401.982H493.469L493.613 403.458C493.805 403.17 494.051 402.9 494.351 402.648C494.651 402.384 495.011 402.174 495.431 402.018C495.851 401.85 496.337 401.766 496.889 401.766C497.765 401.766 498.527 401.976 499.175 402.396C499.835 402.804 500.351 403.368 500.723 404.088C501.095 404.796 501.281 405.606 501.281 406.518C501.281 407.418 501.095 408.222 500.723 408.93C500.351 409.638 499.835 410.196 499.175 410.604C498.515 411.012 497.747 411.216 496.871 411.216C496.139 411.216 495.491 411.066 494.927 410.766C494.363 410.466 493.925 410.046 493.613 409.506V414.96H492.101ZM496.709 409.902C497.297 409.902 497.819 409.764 498.275 409.488C498.731 409.2 499.085 408.804 499.337 408.3C499.601 407.784 499.733 407.184 499.733 406.5C499.733 405.816 499.601 405.222 499.337 404.718C499.085 404.202 498.731 403.8 498.275 403.512C497.819 403.224 497.297 403.08 496.709 403.08C496.109 403.08 495.575 403.224 495.107 403.512C494.651 403.8 494.291 404.202 494.027 404.718C493.775 405.222 493.649 405.816 493.649 406.5C493.649 407.184 493.775 407.784 494.027 408.3C494.291 408.804 494.651 409.2 495.107 409.488C495.575 409.764 496.109 409.902 496.709 409.902ZM503.026 411V398.04H504.538V411H503.026ZM510.688 411.216C509.836 411.216 509.08 411.024 508.42 410.64C507.76 410.244 507.238 409.692 506.854 408.984C506.482 408.264 506.296 407.436 506.296 406.5C506.296 405.54 506.482 404.712 506.854 404.016C507.226 403.308 507.742 402.756 508.402 402.36C509.074 401.964 509.848 401.766 510.724 401.766C511.6 401.766 512.35 401.964 512.974 402.36C513.598 402.756 514.072 403.272 514.396 403.908C514.732 404.544 514.9 405.24 514.9 405.996C514.9 406.116 514.9 406.248 514.9 406.392C514.9 406.524 514.894 406.674 514.882 406.842H507.43V405.672H513.406C513.37 404.844 513.094 404.202 512.578 403.746C512.074 403.278 511.444 403.044 510.688 403.044C510.172 403.044 509.692 403.164 509.248 403.404C508.804 403.632 508.444 403.968 508.168 404.412C507.904 404.856 507.772 405.414 507.772 406.086V406.59C507.772 407.322 507.91 407.94 508.186 408.444C508.462 408.948 508.822 409.326 509.266 409.578C509.71 409.818 510.184 409.938 510.688 409.938C511.312 409.938 511.828 409.8 512.236 409.524C512.656 409.236 512.962 408.846 513.154 408.354H514.648C514.492 408.906 514.234 409.398 513.874 409.83C513.514 410.25 513.064 410.586 512.524 410.838C511.996 411.09 511.384 411.216 510.688 411.216ZM523.953 411.216C523.209 411.216 522.591 411.09 522.099 410.838C521.619 410.586 521.259 410.25 521.019 409.83C520.779 409.398 520.659 408.93 520.659 408.426C520.659 407.814 520.815 407.298 521.127 406.878C521.451 406.458 521.901 406.14 522.477 405.924C523.065 405.696 523.749 405.582 524.529 405.582H526.941C526.941 405.018 526.851 404.55 526.671 404.178C526.503 403.806 526.251 403.524 525.915 403.332C525.579 403.14 525.171 403.044 524.691 403.044C524.115 403.044 523.611 403.194 523.179 403.494C522.759 403.782 522.501 404.202 522.405 404.754H520.857C520.929 404.118 521.145 403.578 521.505 403.134C521.877 402.69 522.345 402.354 522.909 402.126C523.473 401.886 524.067 401.766 524.691 401.766C525.519 401.766 526.209 401.922 526.761 402.234C527.325 402.534 527.745 402.96 528.021 403.512C528.309 404.052 528.453 404.694 528.453 405.438V411H527.103L527.013 409.398C526.893 409.65 526.737 409.89 526.545 410.118C526.365 410.334 526.149 410.526 525.897 410.694C525.657 410.85 525.375 410.976 525.051 411.072C524.727 411.168 524.361 411.216 523.953 411.216ZM524.187 409.938C524.619 409.938 525.003 409.854 525.339 409.686C525.675 409.506 525.963 409.266 526.203 408.966C526.455 408.666 526.641 408.33 526.761 407.958C526.881 407.574 526.941 407.184 526.941 406.788V406.752H524.655C524.079 406.752 523.611 406.824 523.251 406.968C522.891 407.1 522.633 407.286 522.477 407.526C522.321 407.766 522.243 408.042 522.243 408.354C522.243 408.678 522.315 408.96 522.459 409.2C522.615 409.44 522.837 409.626 523.125 409.758C523.413 409.878 523.767 409.938 524.187 409.938ZM530.397 411V401.982H531.765L531.855 403.584C532.143 403.02 532.557 402.576 533.097 402.252C533.637 401.928 534.249 401.766 534.933 401.766C535.629 401.766 536.235 401.91 536.751 402.198C537.267 402.474 537.669 402.9 537.957 403.476C538.245 404.052 538.389 404.778 538.389 405.654V411H536.877V405.816C536.877 404.904 536.679 404.22 536.283 403.764C535.887 403.296 535.323 403.062 534.591 403.062C534.075 403.062 533.613 403.188 533.205 403.44C532.809 403.692 532.491 404.052 532.251 404.52C532.023 404.988 531.909 405.564 531.909 406.248V411H530.397ZM544.387 411.216C543.511 411.216 542.737 411.012 542.065 410.604C541.405 410.184 540.889 409.62 540.517 408.912C540.157 408.192 539.977 407.382 539.977 406.482C539.977 405.57 540.157 404.76 540.517 404.052C540.889 403.344 541.411 402.786 542.083 402.378C542.755 401.97 543.529 401.766 544.405 401.766C545.137 401.766 545.785 401.916 546.349 402.216C546.913 402.516 547.345 402.936 547.645 403.476V398.04H549.157V411H547.789L547.663 409.524C547.471 409.812 547.225 410.088 546.925 410.352C546.625 410.604 546.265 410.814 545.845 410.982C545.425 411.138 544.939 411.216 544.387 411.216ZM544.549 409.902C545.149 409.902 545.677 409.764 546.133 409.488C546.601 409.2 546.961 408.804 547.213 408.3C547.465 407.784 547.591 407.184 547.591 406.5C547.591 405.816 547.465 405.222 547.213 404.718C546.961 404.202 546.601 403.8 546.133 403.512C545.677 403.224 545.149 403.08 544.549 403.08C543.973 403.08 543.451 403.224 542.983 403.512C542.527 403.8 542.167 404.202 541.903 404.718C541.651 405.222 541.525 405.816 541.525 406.5C541.525 407.184 541.651 407.784 541.903 408.3C542.167 408.804 542.527 409.2 542.983 409.488C543.451 409.764 543.973 409.902 544.549 409.902ZM559.733 411.216C558.881 411.216 558.125 411.024 557.465 410.64C556.805 410.244 556.283 409.692 555.899 408.984C555.527 408.264 555.341 407.436 555.341 406.5C555.341 405.54 555.527 404.712 555.899 404.016C556.271 403.308 556.787 402.756 557.447 402.36C558.119 401.964 558.893 401.766 559.769 401.766C560.645 401.766 561.395 401.964 562.019 402.36C562.643 402.756 563.117 403.272 563.441 403.908C563.777 404.544 563.945 405.24 563.945 405.996C563.945 406.116 563.945 406.248 563.945 406.392C563.945 406.524 563.939 406.674 563.927 406.842H556.475V405.672H562.451C562.415 404.844 562.139 404.202 561.623 403.746C561.119 403.278 560.489 403.044 559.733 403.044C559.217 403.044 558.737 403.164 558.293 403.404C557.849 403.632 557.489 403.968 557.213 404.412C556.949 404.856 556.817 405.414 556.817 406.086V406.59C556.817 407.322 556.955 407.94 557.231 408.444C557.507 408.948 557.867 409.326 558.311 409.578C558.755 409.818 559.229 409.938 559.733 409.938C560.357 409.938 560.873 409.8 561.281 409.524C561.701 409.236 562.007 408.846 562.199 408.354H563.693C563.537 408.906 563.279 409.398 562.919 409.83C562.559 410.25 562.109 410.586 561.569 410.838C561.041 411.09 560.429 411.216 559.733 411.216ZM568.577 411.216C567.833 411.216 567.215 411.09 566.723 410.838C566.243 410.586 565.883 410.25 565.643 409.83C565.403 409.398 565.283 408.93 565.283 408.426C565.283 407.814 565.439 407.298 565.751 406.878C566.075 406.458 566.525 406.14 567.101 405.924C567.689 405.696 568.373 405.582 569.153 405.582H571.565C571.565 405.018 571.475 404.55 571.295 404.178C571.127 403.806 570.875 403.524 570.539 403.332C570.203 403.14 569.795 403.044 569.315 403.044C568.739 403.044 568.235 403.194 567.803 403.494C567.383 403.782 567.125 404.202 567.029 404.754H565.481C565.553 404.118 565.769 403.578 566.129 403.134C566.501 402.69 566.969 402.354 567.533 402.126C568.097 401.886 568.691 401.766 569.315 401.766C570.143 401.766 570.833 401.922 571.385 402.234C571.949 402.534 572.369 402.96 572.645 403.512C572.933 404.052 573.077 404.694 573.077 405.438V411H571.727L571.637 409.398C571.517 409.65 571.361 409.89 571.169 410.118C570.989 410.334 570.773 410.526 570.521 410.694C570.281 410.85 569.999 410.976 569.675 411.072C569.351 411.168 568.985 411.216 568.577 411.216ZM568.811 409.938C569.243 409.938 569.627 409.854 569.963 409.686C570.299 409.506 570.587 409.266 570.827 408.966C571.079 408.666 571.265 408.33 571.385 407.958C571.505 407.574 571.565 407.184 571.565 406.788V406.752H569.279C568.703 406.752 568.235 406.824 567.875 406.968C567.515 407.1 567.257 407.286 567.101 407.526C566.945 407.766 566.867 408.042 566.867 408.354C566.867 408.678 566.939 408.96 567.083 409.2C567.239 409.44 567.461 409.626 567.749 409.758C568.037 409.878 568.391 409.938 568.811 409.938ZM578.441 411.216C577.709 411.216 577.061 411.096 576.497 410.856C575.945 410.604 575.501 410.25 575.165 409.794C574.829 409.338 574.619 408.804 574.535 408.192H576.083C576.155 408.516 576.287 408.81 576.479 409.074C576.671 409.338 576.935 409.548 577.271 409.704C577.607 409.86 578.003 409.938 578.459 409.938C578.891 409.938 579.239 409.878 579.503 409.758C579.779 409.626 579.983 409.458 580.115 409.254C580.259 409.038 580.331 408.804 580.331 408.552C580.331 408.18 580.241 407.898 580.061 407.706C579.893 407.514 579.641 407.364 579.305 407.256C578.969 407.148 578.567 407.052 578.099 406.968C577.715 406.896 577.331 406.8 576.947 406.68C576.575 406.548 576.233 406.392 575.921 406.212C575.621 406.02 575.381 405.78 575.201 405.492C575.021 405.204 574.931 404.85 574.931 404.43C574.931 403.914 575.063 403.458 575.327 403.062C575.603 402.654 575.981 402.336 576.461 402.108C576.953 401.88 577.535 401.766 578.207 401.766C579.167 401.766 579.947 402 580.547 402.468C581.147 402.936 581.501 403.614 581.609 404.502H580.115C580.055 404.046 579.857 403.692 579.521 403.44C579.197 403.176 578.753 403.044 578.189 403.044C577.625 403.044 577.193 403.158 576.893 403.386C576.605 403.614 576.461 403.914 576.461 404.286C576.461 404.526 576.545 404.736 576.713 404.916C576.881 405.096 577.121 405.252 577.433 405.384C577.757 405.504 578.147 405.612 578.603 405.708C579.191 405.816 579.731 405.96 580.223 406.14C580.715 406.32 581.111 406.584 581.411 406.932C581.723 407.28 581.879 407.778 581.879 408.426C581.891 408.978 581.753 409.464 581.465 409.884C581.177 410.304 580.775 410.634 580.259 410.874C579.755 411.102 579.149 411.216 578.441 411.216ZM584.281 414.96L586.495 409.992H585.973L582.409 401.982H584.047L587.017 408.876L590.131 401.982H591.697L585.865 414.96H584.281ZM600.919 411C600.379 411 599.911 410.916 599.515 410.748C599.119 410.58 598.813 410.298 598.597 409.902C598.393 409.494 598.291 408.948 598.291 408.264V403.26H596.725V401.982H598.291L598.489 399.822H599.803V401.982H602.431V403.26H599.803V408.264C599.803 408.828 599.917 409.212 600.145 409.416C600.373 409.608 600.775 409.704 601.351 409.704H602.305V411H600.919ZM607.83 411.216C606.99 411.216 606.234 411.024 605.562 410.64C604.89 410.244 604.356 409.692 603.96 408.984C603.576 408.276 603.384 407.448 603.384 406.5C603.384 405.54 603.582 404.706 603.978 403.998C604.374 403.29 604.908 402.744 605.58 402.36C606.264 401.964 607.026 401.766 607.866 401.766C608.718 401.766 609.48 401.964 610.152 402.36C610.824 402.744 611.352 403.29 611.736 403.998C612.12 404.706 612.312 405.54 612.312 406.5C612.312 407.448 612.114 408.276 611.718 408.984C611.334 409.692 610.8 410.244 610.116 410.64C609.444 411.024 608.682 411.216 607.83 411.216ZM607.83 409.92C608.358 409.92 608.844 409.794 609.288 409.542C609.732 409.29 610.086 408.906 610.35 408.39C610.626 407.874 610.764 407.244 610.764 406.5C610.764 405.732 610.632 405.096 610.368 404.592C610.104 404.088 609.75 403.71 609.306 403.458C608.862 403.194 608.382 403.062 607.866 403.062C607.362 403.062 606.882 403.194 606.426 403.458C605.982 403.71 605.622 404.088 605.346 404.592C605.07 405.096 604.932 405.732 604.932 406.5C604.932 407.244 605.07 407.874 605.346 408.39C605.622 408.906 605.976 409.29 606.408 409.542C606.852 409.794 607.326 409.92 607.83 409.92ZM621.787 411.216C621.091 411.216 620.479 411.078 619.951 410.802C619.435 410.514 619.033 410.082 618.745 409.506C618.469 408.93 618.331 408.204 618.331 407.328V401.982H619.843V407.166C619.843 408.09 620.035 408.78 620.419 409.236C620.815 409.692 621.379 409.92 622.111 409.92C622.627 409.92 623.083 409.8 623.479 409.56C623.887 409.308 624.205 408.948 624.433 408.48C624.673 408 624.793 407.424 624.793 406.752V401.982H626.305V411H624.937L624.847 409.416C624.571 409.98 624.163 410.424 623.623 410.748C623.083 411.06 622.471 411.216 621.787 411.216ZM631.872 411.216C631.14 411.216 630.492 411.096 629.928 410.856C629.376 410.604 628.932 410.25 628.596 409.794C628.26 409.338 628.05 408.804 627.966 408.192H629.514C629.586 408.516 629.718 408.81 629.91 409.074C630.102 409.338 630.366 409.548 630.702 409.704C631.038 409.86 631.434 409.938 631.89 409.938C632.322 409.938 632.67 409.878 632.934 409.758C633.21 409.626 633.414 409.458 633.546 409.254C633.69 409.038 633.762 408.804 633.762 408.552C633.762 408.18 633.672 407.898 633.492 407.706C633.324 407.514 633.072 407.364 632.736 407.256C632.4 407.148 631.998 407.052 631.53 406.968C631.146 406.896 630.762 406.8 630.378 406.68C630.006 406.548 629.664 406.392 629.352 406.212C629.052 406.02 628.812 405.78 628.632 405.492C628.452 405.204 628.362 404.85 628.362 404.43C628.362 403.914 628.494 403.458 628.758 403.062C629.034 402.654 629.412 402.336 629.892 402.108C630.384 401.88 630.966 401.766 631.638 401.766C632.598 401.766 633.378 402 633.978 402.468C634.578 402.936 634.932 403.614 635.04 404.502H633.546C633.486 404.046 633.288 403.692 632.952 403.44C632.628 403.176 632.184 403.044 631.62 403.044C631.056 403.044 630.624 403.158 630.324 403.386C630.036 403.614 629.892 403.914 629.892 404.286C629.892 404.526 629.976 404.736 630.144 404.916C630.312 405.096 630.552 405.252 630.864 405.384C631.188 405.504 631.578 405.612 632.034 405.708C632.622 405.816 633.162 405.96 633.654 406.14C634.146 406.32 634.542 406.584 634.842 406.932C635.154 407.28 635.31 407.778 635.31 408.426C635.322 408.978 635.184 409.464 634.896 409.884C634.608 410.304 634.206 410.634 633.69 410.874C633.186 411.102 632.58 411.216 631.872 411.216ZM641.123 411.216C640.271 411.216 639.515 411.024 638.855 410.64C638.195 410.244 637.673 409.692 637.289 408.984C636.917 408.264 636.731 407.436 636.731 406.5C636.731 405.54 636.917 404.712 637.289 404.016C637.661 403.308 638.177 402.756 638.837 402.36C639.509 401.964 640.283 401.766 641.159 401.766C642.035 401.766 642.785 401.964 643.409 402.36C644.033 402.756 644.507 403.272 644.831 403.908C645.167 404.544 645.335 405.24 645.335 405.996C645.335 406.116 645.335 406.248 645.335 406.392C645.335 406.524 645.329 406.674 645.317 406.842H637.865V405.672H643.841C643.805 404.844 643.529 404.202 643.013 403.746C642.509 403.278 641.879 403.044 641.123 403.044C640.607 403.044 640.127 403.164 639.683 403.404C639.239 403.632 638.879 403.968 638.603 404.412C638.339 404.856 638.207 405.414 638.207 406.086V406.59C638.207 407.322 638.345 407.94 638.621 408.444C638.897 408.948 639.257 409.326 639.701 409.578C640.145 409.818 640.619 409.938 641.123 409.938C641.747 409.938 642.263 409.8 642.671 409.524C643.091 409.236 643.397 408.846 643.589 408.354H645.083C644.927 408.906 644.669 409.398 644.309 409.83C643.949 410.25 643.499 410.586 642.959 410.838C642.431 411.09 641.819 411.216 641.123 411.216ZM646.997 411V401.982H648.365L648.491 403.71C648.683 403.302 648.935 402.954 649.247 402.666C649.571 402.378 649.955 402.156 650.399 402C650.843 401.844 651.347 401.766 651.911 401.766V403.35H651.425C651.029 403.35 650.651 403.404 650.291 403.512C649.943 403.608 649.631 403.77 649.355 403.998C649.091 404.226 648.881 404.538 648.725 404.934C648.581 405.318 648.509 405.804 648.509 406.392V411H646.997ZM661.232 411C660.692 411 660.224 410.916 659.828 410.748C659.432 410.58 659.126 410.298 658.91 409.902C658.706 409.494 658.604 408.948 658.604 408.264V403.26H657.038V401.982H658.604L658.802 399.822H660.116V401.982H662.744V403.26H660.116V408.264C660.116 408.828 660.23 409.212 660.458 409.416C660.686 409.608 661.088 409.704 661.664 409.704H662.618V411H661.232ZM668.144 411.216C667.304 411.216 666.548 411.024 665.876 410.64C665.204 410.244 664.67 409.692 664.274 408.984C663.89 408.276 663.698 407.448 663.698 406.5C663.698 405.54 663.896 404.706 664.292 403.998C664.688 403.29 665.222 402.744 665.894 402.36C666.578 401.964 667.34 401.766 668.18 401.766C669.032 401.766 669.794 401.964 670.466 402.36C671.138 402.744 671.666 403.29 672.05 403.998C672.434 404.706 672.626 405.54 672.626 406.5C672.626 407.448 672.428 408.276 672.032 408.984C671.648 409.692 671.114 410.244 670.43 410.64C669.758 411.024 668.996 411.216 668.144 411.216ZM668.144 409.92C668.672 409.92 669.158 409.794 669.602 409.542C670.046 409.29 670.4 408.906 670.664 408.39C670.94 407.874 671.078 407.244 671.078 406.5C671.078 405.732 670.946 405.096 670.682 404.592C670.418 404.088 670.064 403.71 669.62 403.458C669.176 403.194 668.696 403.062 668.18 403.062C667.676 403.062 667.196 403.194 666.74 403.458C666.296 403.71 665.936 404.088 665.66 404.592C665.384 405.096 665.246 405.732 665.246 406.5C665.246 407.244 665.384 407.874 665.66 408.39C665.936 408.906 666.29 409.29 666.722 409.542C667.166 409.794 667.64 409.92 668.144 409.92ZM678.453 411.216C677.613 411.216 676.857 411.024 676.185 410.64C675.513 410.244 674.979 409.692 674.583 408.984C674.199 408.276 674.007 407.448 674.007 406.5C674.007 405.54 674.205 404.706 674.601 403.998C674.997 403.29 675.531 402.744 676.203 402.36C676.887 401.964 677.649 401.766 678.489 401.766C679.341 401.766 680.103 401.964 680.775 402.36C681.447 402.744 681.975 403.29 682.359 403.998C682.743 404.706 682.935 405.54 682.935 406.5C682.935 407.448 682.737 408.276 682.341 408.984C681.957 409.692 681.423 410.244 680.739 410.64C680.067 411.024 679.305 411.216 678.453 411.216ZM678.453 409.92C678.981 409.92 679.467 409.794 679.911 409.542C680.355 409.29 680.709 408.906 680.973 408.39C681.249 407.874 681.387 407.244 681.387 406.5C681.387 405.732 681.255 405.096 680.991 404.592C680.727 404.088 680.373 403.71 679.929 403.458C679.485 403.194 679.005 403.062 678.489 403.062C677.985 403.062 677.505 403.194 677.049 403.458C676.605 403.71 676.245 404.088 675.969 404.592C675.693 405.096 675.555 405.732 675.555 406.5C675.555 407.244 675.693 407.874 675.969 408.39C676.245 408.906 676.599 409.29 677.031 409.542C677.475 409.794 677.949 409.92 678.453 409.92ZM684.695 411V398.04H686.207V411H684.695ZM696.184 411.216C695.452 411.216 694.804 411.096 694.24 410.856C693.688 410.604 693.244 410.25 692.908 409.794C692.572 409.338 692.362 408.804 692.278 408.192H693.826C693.898 408.516 694.03 408.81 694.222 409.074C694.414 409.338 694.678 409.548 695.014 409.704C695.35 409.86 695.746 409.938 696.202 409.938C696.634 409.938 696.982 409.878 697.246 409.758C697.522 409.626 697.726 409.458 697.858 409.254C698.002 409.038 698.074 408.804 698.074 408.552C698.074 408.18 697.984 407.898 697.804 407.706C697.636 407.514 697.384 407.364 697.048 407.256C696.712 407.148 696.31 407.052 695.842 406.968C695.458 406.896 695.074 406.8 694.69 406.68C694.318 406.548 693.976 406.392 693.664 406.212C693.364 406.02 693.124 405.78 692.944 405.492C692.764 405.204 692.674 404.85 692.674 404.43C692.674 403.914 692.806 403.458 693.07 403.062C693.346 402.654 693.724 402.336 694.204 402.108C694.696 401.88 695.278 401.766 695.95 401.766C696.91 401.766 697.69 402 698.29 402.468C698.89 402.936 699.244 403.614 699.352 404.502H697.858C697.798 404.046 697.6 403.692 697.264 403.44C696.94 403.176 696.496 403.044 695.932 403.044C695.368 403.044 694.936 403.158 694.636 403.386C694.348 403.614 694.204 403.914 694.204 404.286C694.204 404.526 694.288 404.736 694.456 404.916C694.624 405.096 694.864 405.252 695.176 405.384C695.5 405.504 695.89 405.612 696.346 405.708C696.934 405.816 697.474 405.96 697.966 406.14C698.458 406.32 698.854 406.584 699.154 406.932C699.466 407.28 699.622 407.778 699.622 408.426C699.634 408.978 699.496 409.464 699.208 409.884C698.92 410.304 698.518 410.634 698.002 410.874C697.498 411.102 696.892 411.216 696.184 411.216ZM704.716 411.216C704.02 411.216 703.408 411.078 702.88 410.802C702.364 410.514 701.962 410.082 701.674 409.506C701.398 408.93 701.26 408.204 701.26 407.328V401.982H702.772V407.166C702.772 408.09 702.964 408.78 703.348 409.236C703.744 409.692 704.308 409.92 705.04 409.92C705.556 409.92 706.012 409.8 706.408 409.56C706.816 409.308 707.134 408.948 707.362 408.48C707.602 408 707.722 407.424 707.722 406.752V401.982H709.234V411H707.866L707.776 409.416C707.5 409.98 707.092 410.424 706.552 410.748C706.012 411.06 705.4 411.216 704.716 411.216ZM711.542 411V401.982H713.054V411H711.542ZM712.298 400.038C711.998 400.038 711.746 399.942 711.542 399.75C711.35 399.546 711.254 399.294 711.254 398.994C711.254 398.694 711.35 398.454 711.542 398.274C711.746 398.082 711.998 397.986 712.298 397.986C712.586 397.986 712.832 398.082 713.036 398.274C713.24 398.454 713.342 398.694 713.342 398.994C713.342 399.294 713.24 399.546 713.036 399.75C712.832 399.942 712.586 400.038 712.298 400.038ZM718.891 411C718.351 411 717.883 410.916 717.487 410.748C717.091 410.58 716.785 410.298 716.569 409.902C716.365 409.494 716.263 408.948 716.263 408.264V403.26H714.697V401.982H716.263L716.461 399.822H717.775V401.982H720.403V403.26H717.775V408.264C717.775 408.828 717.889 409.212 718.117 409.416C718.345 409.608 718.747 409.704 719.323 409.704H720.277V411H718.891ZM725.749 411.216C724.897 411.216 724.141 411.024 723.481 410.64C722.821 410.244 722.299 409.692 721.915 408.984C721.543 408.264 721.357 407.436 721.357 406.5C721.357 405.54 721.543 404.712 721.915 404.016C722.287 403.308 722.803 402.756 723.463 402.36C724.135 401.964 724.909 401.766 725.785 401.766C726.661 401.766 727.411 401.964 728.035 402.36C728.659 402.756 729.133 403.272 729.457 403.908C729.793 404.544 729.961 405.24 729.961 405.996C729.961 406.116 729.961 406.248 729.961 406.392C729.961 406.524 729.955 406.674 729.943 406.842H722.491V405.672H728.467C728.431 404.844 728.155 404.202 727.639 403.746C727.135 403.278 726.505 403.044 725.749 403.044C725.233 403.044 724.753 403.164 724.309 403.404C723.865 403.632 723.505 403.968 723.229 404.412C722.965 404.856 722.833 405.414 722.833 406.086V406.59C722.833 407.322 722.971 407.94 723.247 408.444C723.523 408.948 723.883 409.326 724.327 409.578C724.771 409.818 725.245 409.938 725.749 409.938C726.373 409.938 726.889 409.8 727.297 409.524C727.717 409.236 728.023 408.846 728.215 408.354H729.709C729.553 408.906 729.295 409.398 728.935 409.83C728.575 410.25 728.125 410.586 727.585 410.838C727.057 411.09 726.445 411.216 725.749 411.216ZM735.655 411.216C734.779 411.216 734.005 411.012 733.333 410.604C732.673 410.184 732.157 409.62 731.785 408.912C731.425 408.192 731.245 407.382 731.245 406.482C731.245 405.57 731.425 404.76 731.785 404.052C732.157 403.344 732.679 402.786 733.351 402.378C734.023 401.97 734.797 401.766 735.673 401.766C736.405 401.766 737.053 401.916 737.617 402.216C738.181 402.516 738.613 402.936 738.913 403.476V398.04H740.425V411H739.057L738.931 409.524C738.739 409.812 738.493 410.088 738.193 410.352C737.893 410.604 737.533 410.814 737.113 410.982C736.693 411.138 736.207 411.216 735.655 411.216ZM735.817 409.902C736.417 409.902 736.945 409.764 737.401 409.488C737.869 409.2 738.229 408.804 738.481 408.3C738.733 407.784 738.859 407.184 738.859 406.5C738.859 405.816 738.733 405.222 738.481 404.718C738.229 404.202 737.869 403.8 737.401 403.512C736.945 403.224 736.417 403.08 735.817 403.08C735.241 403.08 734.719 403.224 734.251 403.512C733.795 403.8 733.435 404.202 733.171 404.718C732.919 405.222 732.793 405.816 732.793 406.5C732.793 407.184 732.919 407.784 733.171 408.3C733.435 408.804 733.795 409.2 734.251 409.488C734.719 409.764 735.241 409.902 735.817 409.902ZM747.491 411V400.524C747.491 399.948 747.587 399.48 747.779 399.12C747.971 398.748 748.253 398.478 748.625 398.31C749.009 398.13 749.477 398.04 750.029 398.04H751.001V399.336H750.263C749.819 399.336 749.495 399.426 749.291 399.606C749.099 399.786 749.003 400.104 749.003 400.56V411H747.491ZM746.123 403.26V401.982H751.253V403.26H746.123ZM756.408 411.216C755.568 411.216 754.812 411.024 754.14 410.64C753.468 410.244 752.934 409.692 752.538 408.984C752.154 408.276 751.962 407.448 751.962 406.5C751.962 405.54 752.16 404.706 752.556 403.998C752.952 403.29 753.486 402.744 754.158 402.36C754.842 401.964 755.604 401.766 756.444 401.766C757.296 401.766 758.058 401.964 758.73 402.36C759.402 402.744 759.93 403.29 760.314 403.998C760.698 404.706 760.89 405.54 760.89 406.5C760.89 407.448 760.692 408.276 760.296 408.984C759.912 409.692 759.378 410.244 758.694 410.64C758.022 411.024 757.26 411.216 756.408 411.216ZM756.408 409.92C756.936 409.92 757.422 409.794 757.866 409.542C758.31 409.29 758.664 408.906 758.928 408.39C759.204 407.874 759.342 407.244 759.342 406.5C759.342 405.732 759.21 405.096 758.946 404.592C758.682 404.088 758.328 403.71 757.884 403.458C757.44 403.194 756.96 403.062 756.444 403.062C755.94 403.062 755.46 403.194 755.004 403.458C754.56 403.71 754.2 404.088 753.924 404.592C753.648 405.096 753.51 405.732 753.51 406.5C753.51 407.244 753.648 407.874 753.924 408.39C754.2 408.906 754.554 409.29 754.986 409.542C755.43 409.794 755.904 409.92 756.408 409.92ZM762.649 411V401.982H764.017L764.143 403.71C764.335 403.302 764.587 402.954 764.899 402.666C765.223 402.378 765.607 402.156 766.051 402C766.495 401.844 766.999 401.766 767.563 401.766V403.35H767.077C766.681 403.35 766.303 403.404 765.943 403.512C765.595 403.608 765.283 403.77 765.007 403.998C764.743 404.226 764.533 404.538 764.377 404.934C764.233 405.318 764.161 405.804 764.161 406.392V411H762.649ZM550.421 437.96L552.635 432.992H552.113L548.549 424.982H550.187L553.157 431.876L556.271 424.982H557.837L552.005 437.96H550.421ZM562.297 434.216C561.457 434.216 560.701 434.024 560.029 433.64C559.357 433.244 558.823 432.692 558.427 431.984C558.043 431.276 557.851 430.448 557.851 429.5C557.851 428.54 558.049 427.706 558.445 426.998C558.841 426.29 559.375 425.744 560.047 425.36C560.731 424.964 561.493 424.766 562.333 424.766C563.185 424.766 563.947 424.964 564.619 425.36C565.291 425.744 565.819 426.29 566.203 426.998C566.587 427.706 566.779 428.54 566.779 429.5C566.779 430.448 566.581 431.276 566.185 431.984C565.801 432.692 565.267 433.244 564.583 433.64C563.911 434.024 563.149 434.216 562.297 434.216ZM562.297 432.92C562.825 432.92 563.311 432.794 563.755 432.542C564.199 432.29 564.553 431.906 564.817 431.39C565.093 430.874 565.231 430.244 565.231 429.5C565.231 428.732 565.099 428.096 564.835 427.592C564.571 427.088 564.217 426.71 563.773 426.458C563.329 426.194 562.849 426.062 562.333 426.062C561.829 426.062 561.349 426.194 560.893 426.458C560.449 426.71 560.089 427.088 559.813 427.592C559.537 428.096 559.399 428.732 559.399 429.5C559.399 430.244 559.537 430.874 559.813 431.39C560.089 431.906 560.443 432.29 560.875 432.542C561.319 432.794 561.793 432.92 562.297 432.92ZM571.833 434.216C571.137 434.216 570.525 434.078 569.997 433.802C569.481 433.514 569.079 433.082 568.791 432.506C568.515 431.93 568.377 431.204 568.377 430.328V424.982H569.889V430.166C569.889 431.09 570.081 431.78 570.465 432.236C570.861 432.692 571.425 432.92 572.157 432.92C572.673 432.92 573.129 432.8 573.525 432.56C573.933 432.308 574.251 431.948 574.479 431.48C574.719 431 574.839 430.424 574.839 429.752V424.982H576.351V434H574.983L574.893 432.416C574.617 432.98 574.209 433.424 573.669 433.748C573.129 434.06 572.517 434.216 571.833 434.216ZM578.497 434V424.982H579.865L579.991 426.71C580.183 426.302 580.435 425.954 580.747 425.666C581.071 425.378 581.455 425.156 581.899 425C582.343 424.844 582.847 424.766 583.411 424.766V426.35H582.925C582.529 426.35 582.151 426.404 581.791 426.512C581.443 426.608 581.131 426.77 580.855 426.998C580.591 427.226 580.381 427.538 580.225 427.934C580.081 428.318 580.009 428.804 580.009 429.392V434H578.497ZM589.168 434V424.982H590.536L590.626 426.584C590.914 426.02 591.328 425.576 591.868 425.252C592.408 424.928 593.02 424.766 593.704 424.766C594.4 424.766 595.006 424.91 595.522 425.198C596.038 425.474 596.44 425.9 596.728 426.476C597.016 427.052 597.16 427.778 597.16 428.654V434H595.648V428.816C595.648 427.904 595.45 427.22 595.054 426.764C594.658 426.296 594.094 426.062 593.362 426.062C592.846 426.062 592.384 426.188 591.976 426.44C591.58 426.692 591.262 427.052 591.022 427.52C590.794 427.988 590.68 428.564 590.68 429.248V434H589.168ZM603.14 434.216C602.288 434.216 601.532 434.024 600.872 433.64C600.212 433.244 599.69 432.692 599.306 431.984C598.934 431.264 598.748 430.436 598.748 429.5C598.748 428.54 598.934 427.712 599.306 427.016C599.678 426.308 600.194 425.756 600.854 425.36C601.526 424.964 602.3 424.766 603.176 424.766C604.052 424.766 604.802 424.964 605.426 425.36C606.05 425.756 606.524 426.272 606.848 426.908C607.184 427.544 607.352 428.24 607.352 428.996C607.352 429.116 607.352 429.248 607.352 429.392C607.352 429.524 607.346 429.674 607.334 429.842H599.882V428.672H605.858C605.822 427.844 605.546 427.202 605.03 426.746C604.526 426.278 603.896 426.044 603.14 426.044C602.624 426.044 602.144 426.164 601.7 426.404C601.256 426.632 600.896 426.968 600.62 427.412C600.356 427.856 600.224 428.414 600.224 429.086V429.59C600.224 430.322 600.362 430.94 600.638 431.444C600.914 431.948 601.274 432.326 601.718 432.578C602.162 432.818 602.636 432.938 603.14 432.938C603.764 432.938 604.28 432.8 604.688 432.524C605.108 432.236 605.414 431.846 605.606 431.354H607.1C606.944 431.906 606.686 432.398 606.326 432.83C605.966 433.25 605.516 433.586 604.976 433.838C604.448 434.09 603.836 434.216 603.14 434.216ZM613.028 434.216C612.176 434.216 611.42 434.024 610.76 433.64C610.1 433.244 609.578 432.692 609.194 431.984C608.822 431.264 608.636 430.436 608.636 429.5C608.636 428.54 608.822 427.712 609.194 427.016C609.566 426.308 610.082 425.756 610.742 425.36C611.414 424.964 612.188 424.766 613.064 424.766C613.94 424.766 614.69 424.964 615.314 425.36C615.938 425.756 616.412 426.272 616.736 426.908C617.072 427.544 617.24 428.24 617.24 428.996C617.24 429.116 617.24 429.248 617.24 429.392C617.24 429.524 617.234 429.674 617.222 429.842H609.77V428.672H615.746C615.71 427.844 615.434 427.202 614.918 426.746C614.414 426.278 613.784 426.044 613.028 426.044C612.512 426.044 612.032 426.164 611.588 426.404C611.144 426.632 610.784 426.968 610.508 427.412C610.244 427.856 610.112 428.414 610.112 429.086V429.59C610.112 430.322 610.25 430.94 610.526 431.444C610.802 431.948 611.162 432.326 611.606 432.578C612.05 432.818 612.524 432.938 613.028 432.938C613.652 432.938 614.168 432.8 614.576 432.524C614.996 432.236 615.302 431.846 615.494 431.354H616.988C616.832 431.906 616.574 432.398 616.214 432.83C615.854 433.25 615.404 433.586 614.864 433.838C614.336 434.09 613.724 434.216 613.028 434.216ZM622.934 434.216C622.058 434.216 621.284 434.012 620.612 433.604C619.952 433.184 619.436 432.62 619.064 431.912C618.704 431.192 618.524 430.382 618.524 429.482C618.524 428.57 618.704 427.76 619.064 427.052C619.436 426.344 619.958 425.786 620.63 425.378C621.302 424.97 622.076 424.766 622.952 424.766C623.684 424.766 624.332 424.916 624.896 425.216C625.46 425.516 625.892 425.936 626.192 426.476V421.04H627.704V434H626.336L626.21 432.524C626.018 432.812 625.772 433.088 625.472 433.352C625.172 433.604 624.812 433.814 624.392 433.982C623.972 434.138 623.486 434.216 622.934 434.216ZM623.096 432.902C623.696 432.902 624.224 432.764 624.68 432.488C625.148 432.2 625.508 431.804 625.76 431.3C626.012 430.784 626.138 430.184 626.138 429.5C626.138 428.816 626.012 428.222 625.76 427.718C625.508 427.202 625.148 426.8 624.68 426.512C624.224 426.224 623.696 426.08 623.096 426.08C622.52 426.08 621.998 426.224 621.53 426.512C621.074 426.8 620.714 427.202 620.45 427.718C620.198 428.222 620.072 428.816 620.072 429.5C620.072 430.184 620.198 430.784 620.45 431.3C620.714 431.804 621.074 432.2 621.53 432.488C621.998 432.764 622.52 432.902 623.096 432.902ZM633.265 434.216C632.533 434.216 631.885 434.096 631.321 433.856C630.769 433.604 630.325 433.25 629.989 432.794C629.653 432.338 629.443 431.804 629.359 431.192H630.907C630.979 431.516 631.111 431.81 631.303 432.074C631.495 432.338 631.759 432.548 632.095 432.704C632.431 432.86 632.827 432.938 633.283 432.938C633.715 432.938 634.063 432.878 634.327 432.758C634.603 432.626 634.807 432.458 634.939 432.254C635.083 432.038 635.155 431.804 635.155 431.552C635.155 431.18 635.065 430.898 634.885 430.706C634.717 430.514 634.465 430.364 634.129 430.256C633.793 430.148 633.391 430.052 632.923 429.968C632.539 429.896 632.155 429.8 631.771 429.68C631.399 429.548 631.057 429.392 630.745 429.212C630.445 429.02 630.205 428.78 630.025 428.492C629.845 428.204 629.755 427.85 629.755 427.43C629.755 426.914 629.887 426.458 630.151 426.062C630.427 425.654 630.805 425.336 631.285 425.108C631.777 424.88 632.359 424.766 633.031 424.766C633.991 424.766 634.771 425 635.371 425.468C635.971 425.936 636.325 426.614 636.433 427.502H634.939C634.879 427.046 634.681 426.692 634.345 426.44C634.021 426.176 633.577 426.044 633.013 426.044C632.449 426.044 632.017 426.158 631.717 426.386C631.429 426.614 631.285 426.914 631.285 427.286C631.285 427.526 631.369 427.736 631.537 427.916C631.705 428.096 631.945 428.252 632.257 428.384C632.581 428.504 632.971 428.612 633.427 428.708C634.015 428.816 634.555 428.96 635.047 429.14C635.539 429.32 635.935 429.584 636.235 429.932C636.547 430.28 636.703 430.778 636.703 431.426C636.715 431.978 636.577 432.464 636.289 432.884C636.001 433.304 635.599 433.634 635.083 433.874C634.579 434.102 633.973 434.216 633.265 434.216ZM639.043 434.09C638.743 434.09 638.491 433.994 638.287 433.802C638.095 433.598 637.999 433.352 637.999 433.064C637.999 432.776 638.095 432.536 638.287 432.344C638.491 432.14 638.743 432.038 639.043 432.038C639.343 432.038 639.589 432.14 639.781 432.344C639.973 432.536 640.069 432.776 640.069 433.064C640.069 433.352 639.973 433.598 639.781 433.802C639.589 433.994 639.343 434.09 639.043 434.09Z" fill="#BBBBBB"/>
<rect x="862.5" y="376" width="3" height="3" rx="1.5" fill="#D387FF"/>
<rect x="862.5" y="453" width="3" height="3" rx="1.5" fill="#D387FF"/>
<rect x="323.5" y="453" width="3" height="3" rx="1.5" fill="#D387FF"/>
<rect x="323.5" y="376" width="3" height="3" rx="1.5" fill="#D387FF"/>
<rect x="864" y="377.5" width="65" height="77" stroke="#2B1B38"/>
<mask id="path-48-inside-11_1_10" fill="white">
<path d="M928.5 377H1314.5V455H928.5V377Z"/>
</mask>
<path d="M928.5 377V376H927.5V377H928.5ZM928.5 455H927.5V456H928.5V455ZM928.5 378H1314.5V376H928.5V378ZM1314.5 454H928.5V456H1314.5V454ZM929.5 455V377H927.5V455H929.5Z" fill="#2B1B38" mask="url(#path-48-inside-11_1_10)"/>
<defs>
<linearGradient id="paint0_linear_1_10" x1="594" y1="0" x2="594" y2="44" gradientUnits="userSpaceOnUse">
<stop stop-color="#D387FF" stop-opacity="0"/>
<stop offset="1" stop-color="#D387FF" stop-opacity="0.2"/>
</linearGradient>
<linearGradient id="paint1_linear_1_10" x1="594" y1="0" x2="594" y2="44" gradientUnits="userSpaceOnUse">
<stop stop-color="#D387FF" stop-opacity="0.6"/>
<stop offset="1" stop-color="#D387FF" stop-opacity="0"/>
</linearGradient>
<linearGradient id="paint2_linear_1_10" x1="594" y1="12" x2="594" y2="32" gradientUnits="userSpaceOnUse">
<stop stop-color="#49235F"/>
<stop offset="1" stop-color="#D387FF"/>
</linearGradient>
<linearGradient id="paint3_linear_1_10" x1="466" y1="77" x2="554" y2="77" gradientUnits="userSpaceOnUse">
<stop stop-color="#D387FF" stop-opacity="0"/>
<stop offset="1" stop-color="#D387FF"/>
</linearGradient>
<linearGradient id="paint4_linear_1_10" x1="635" y1="77" x2="723" y2="77" gradientUnits="userSpaceOnUse">
<stop stop-color="#D387FF"/>
<stop offset="1" stop-color="#D387FF" stop-opacity="0"/>
</linearGradient>
<clipPath id="clip0_1_10">
<rect width="20" height="20" fill="white" transform="translate(584 12)"/>
</clipPath>
</defs>
</svg>
