<svg width="334" height="255" viewBox="0 0 334 255" fill="none" xmlns="http://www.w3.org/2000/svg">
<g clip-path="url(#clip0_256_8634)">
<path d="M93.309 17.9832C106.155 19.5724 118.9 23.6989 130.816 30.5577C178.478 57.9929 194.808 118.755 167.291 166.275C139.773 118.755 78.8272 102.474 31.1649 129.91C19.2667 136.758 9.32103 145.683 1.52264 155.962C5.2544 95.4132 41.6234 43.6636 93.309 17.9832Z" fill="#FFD600"/>
<path d="M1.5151 155.966C9.31353 145.688 19.2592 136.762 31.1574 129.914C78.8196 102.479 139.765 118.76 167.283 166.279C112.247 166.279 67.6321 210.76 67.6321 265.631C67.6321 279.336 70.4157 292.393 75.4499 304.271C30.695 274.606 1.19824 223.877 1.19824 166.279C1.19824 162.816 1.30489 159.377 1.5151 155.966Z" fill="#1BC47D"/>
<path d="M75.4545 304.266C70.4202 292.388 67.6367 279.331 67.6367 265.626C67.6367 210.755 112.251 166.274 167.288 166.274C139.77 213.793 156.1 274.556 203.763 301.991C215.677 308.849 228.424 312.976 241.269 314.565C218.992 325.634 193.869 331.86 167.288 331.86C133.333 331.86 101.758 321.701 75.4545 304.266Z" fill="#18A0FB"/>
<path d="M241.257 314.565C228.412 312.976 215.666 308.849 203.75 301.991C156.088 274.556 139.758 213.793 167.276 166.274C194.793 213.793 255.739 230.074 303.401 202.639C315.3 195.79 325.246 186.865 333.043 176.587C329.312 237.136 292.943 288.885 241.257 314.565Z" fill="#7B61FF"/>
<path d="M333.05 176.586C325.251 186.864 315.306 195.79 303.408 202.638C255.746 230.074 194.8 213.792 167.282 166.273C222.318 166.273 266.933 121.792 266.933 66.9216C266.933 53.216 264.15 40.1587 259.116 28.2808C303.87 57.9456 333.367 108.675 333.367 166.273C333.367 169.737 333.26 173.175 333.05 176.586Z" fill="#F24822"/>
<path d="M259.123 28.2816C264.158 40.1595 266.941 53.2169 266.941 66.9225C266.941 121.793 222.326 166.274 167.29 166.274C194.808 118.755 178.478 57.9924 130.816 30.5572C118.901 23.6985 106.154 19.572 93.3086 17.9827C115.586 6.91382 140.709 0.687988 167.29 0.687988C201.245 0.687988 232.82 10.8466 259.123 28.2816Z" fill="#F97F0F"/>
</g>
<defs>
<clipPath id="clip0_256_8634">
<rect width="333" height="332" fill="white" transform="translate(0.5)"/>
</clipPath>
</defs>
</svg>
