<svg width="29" height="29" viewBox="0 0 29 29" fill="none" xmlns="http://www.w3.org/2000/svg">
<g clip-path="url(#clip0_255_8088)">
<path d="M16.3788 2.7661C16.3788 3.70589 15.617 4.46774 14.6772 4.46774C13.7374 4.46774 12.9756 3.70589 12.9756 2.7661C12.9756 1.8263 13.7374 1.06445 14.6772 1.06445C15.617 1.06445 16.3788 1.8263 16.3788 2.7661Z" fill="white"/>
<path fill-rule="evenodd" clip-rule="evenodd" d="M14.6776 21.4843C18.4368 21.4843 21.4841 18.4368 21.4841 14.6777C21.4841 10.9185 18.4368 7.87109 14.6776 7.87109C10.9185 7.87109 7.87109 10.9185 7.87109 14.6777C7.87109 18.4368 10.9185 21.4843 14.6776 21.4843ZM14.6776 18.0809C16.5571 18.0809 18.0809 16.5573 18.0809 14.6777C18.0809 12.7981 16.5571 11.2744 14.6776 11.2744C12.7981 11.2744 11.2743 12.7981 11.2743 14.6777C11.2743 16.5573 12.7981 18.0809 14.6776 18.0809Z" fill="white"/>
<path d="M23.185 7.87009C24.1248 7.87009 24.8867 7.10823 24.8867 6.16845C24.8867 5.22865 24.1248 4.4668 23.185 4.4668C22.2452 4.4668 21.4834 5.22865 21.4834 6.16845C21.4834 7.10823 22.2452 7.87009 23.185 7.87009Z" fill="white"/>
<path d="M7.87104 6.16845C7.87104 7.10823 7.10919 7.87009 6.16941 7.87009C5.22962 7.87009 4.46777 7.10823 4.46777 6.16845C4.46777 5.22865 5.22962 4.4668 6.16941 4.4668C7.10919 4.4668 7.87104 5.22865 7.87104 6.16845Z" fill="white"/>
<path d="M14.6772 24.8867C15.617 24.8867 16.3788 25.6485 16.3788 26.5884C16.3788 27.5282 15.617 28.29 14.6772 28.29C13.7374 28.29 12.9756 27.5282 12.9756 26.5884C12.9756 25.6485 13.7374 24.8867 14.6772 24.8867Z" fill="white"/>
<path d="M24.8867 23.186C24.8867 22.2462 24.1248 21.4844 23.185 21.4844C22.2452 21.4844 21.4834 22.2462 21.4834 23.186C21.4834 24.1258 22.2452 24.8876 23.185 24.8876C24.1248 24.8876 24.8867 24.1258 24.8867 23.186Z" fill="white"/>
<path d="M6.16941 21.4844C7.10919 21.4844 7.87104 22.2462 7.87104 23.186C7.87104 24.1258 7.10919 24.8876 6.16941 24.8876C5.22962 24.8876 4.46777 24.1258 4.46777 23.186C4.46777 22.2462 5.22962 21.4844 6.16941 21.4844Z" fill="white"/>
<path d="M4.46772 14.6762C4.46772 15.6161 3.70587 16.3779 2.76609 16.3779C1.8263 16.3779 1.06445 15.6161 1.06445 14.6762C1.06445 13.7364 1.8263 12.9746 2.76609 12.9746C3.70587 12.9746 4.46772 13.7364 4.46772 14.6762Z" fill="white"/>
<path d="M26.5884 16.3779C27.5282 16.3779 28.29 15.6161 28.29 14.6762C28.29 13.7364 27.5282 12.9746 26.5884 12.9746C25.6485 12.9746 24.8867 13.7364 24.8867 14.6762C24.8867 15.6161 25.6485 16.3779 26.5884 16.3779Z" fill="white"/>
</g>
<defs>
<clipPath id="clip0_255_8088">
<rect width="28.0769" height="28.0769" fill="white" transform="translate(0.461914 0.460938)"/>
</clipPath>
</defs>
</svg>
